<svg width="34" height="30" viewBox="0 0 34 30" fill="none" xmlns="http://www.w3.org/2000/svg">
    <path d="M32.1875 11.9925H11.3075V18.0427L1.8125 9.79272L11.3075 1.54272V7.59222H32.1875V11.9925V11.9925ZM16.2425 28.455L13.1675 20.955L10.1 28.455H16.2425ZM11.12 26.655H15.2225H11.12ZM26.48 21.285V28.455V21.285ZM26.48 25.935L30.5825 21.285L26.48 25.935ZM28.4525 23.6925L30.9125 28.455L28.4525 23.6925ZM23.57 27.78C23.102 28.1955 22.4975 28.425 21.872 28.4242C21.5358 28.4244 21.2028 28.3584 20.8921 28.2298C20.5814 28.1012 20.2991 27.9127 20.0613 27.675C19.8235 27.4373 19.6349 27.155 19.5062 26.8443C19.3776 26.5337 19.3114 26.2007 19.3115 25.8645V23.8162C19.3117 23.1374 19.5814 22.4864 20.0615 22.0064C20.5415 21.5264 21.1924 21.2567 21.8712 21.2565V21.2565C22.4971 21.2556 23.1015 21.4849 23.5692 21.9007L23.57 27.78ZM6.0725 24.825H3.33875V21.2542H6.0725C6.30697 21.2541 6.53917 21.3002 6.75582 21.3899C6.97247 21.4795 7.16934 21.611 7.33517 21.7768C7.501 21.9425 7.63255 22.1393 7.7223 22.356C7.81205 22.5726 7.85825 22.8048 7.85825 23.0392C7.85835 23.2738 7.81223 23.506 7.72252 23.7227C7.63281 23.9394 7.50128 24.1363 7.33544 24.3022C7.16959 24.468 6.97269 24.5995 6.75599 24.6892C6.53929 24.779 6.30704 24.8251 6.0725 24.825V24.825Z" fill="white" stroke="white" stroke-width="2" stroke-linecap="round" stroke-linejoin="round"/>
    <path d="M6.0725 28.395H3.33875V24.8242H6.0725C6.54579 24.8246 6.99958 25.0128 7.33424 25.3475C7.66891 25.6821 7.8571 26.1359 7.8575 26.6092V26.6092C7.85759 26.8437 7.8115 27.0759 7.72184 27.2925C7.63217 27.5092 7.50071 27.7061 7.33495 27.8719C7.16918 28.0377 6.97237 28.1693 6.75576 28.259C6.53914 28.3488 6.30697 28.395 6.0725 28.395V28.395Z" fill="white" stroke="white" stroke-width="2" stroke-linecap="round" stroke-linejoin="round"/>
</svg>

