<svg width="34" height="30" viewBox="0 0 64 60" fill="none" xmlns="http://www.w3.org/2000/svg">
    <path d="M23 14.5C23 22.5081 15.5173 29 6.28688 29C-2.94352 29 0.715592 22.5081 0.715592 14.5C0.715592 6.49187 -2.94352 0 6.28688 0C15.5173 0 23 6.49187 23 14.5Z" fill="#00C875"/>
    <path d="M23 45.5C23 53.5081 15.5173 60 6.28688 60C-2.94352 60 0.715592 53.5081 0.715592 45.5C0.715592 37.4919 -2.94352 31 6.28688 31C15.5173 31 23 37.4919 23 45.5Z" fill="#E2435C"/>
    <ellipse cx="44" cy="6" rx="20" ry="6" fill="#569BFD"/>
    <ellipse cx="44.3825" cy="36.3665" rx="23.3182" ry="6.19811" transform="rotate(89.5466 44.3825 36.3665)" fill="#FFCB00"/>
</svg>
