<svg width="68" height="24" viewBox="0 0 68 24" fill="none" xmlns="http://www.w3.org/2000/svg">
    <path d="M4.03906 0.9375V18H0.523438V0.9375H4.03906ZM10.8359 8.22656V10.9688H3.07812V8.22656H10.8359ZM11.6562 0.9375V3.69141H3.07812V0.9375H11.6562ZM16.5547 8.08594V18H13.1797V5.32031H16.3555L16.5547 8.08594ZM20.375 5.23828L20.3164 8.36719C20.1523 8.34375 19.9531 8.32422 19.7188 8.30859C19.4922 8.28516 19.2852 8.27344 19.0977 8.27344C18.6211 8.27344 18.207 8.33594 17.8555 8.46094C17.5117 8.57812 17.2227 8.75391 16.9883 8.98828C16.7617 9.22266 16.5898 9.50781 16.4727 9.84375C16.3633 10.1797 16.3008 10.5625 16.2852 10.9922L15.6055 10.7812C15.6055 9.96094 15.6875 9.20703 15.8516 8.51953C16.0156 7.82422 16.2539 7.21875 16.5664 6.70312C16.8867 6.1875 17.2773 5.78906 17.7383 5.50781C18.1992 5.22656 18.7266 5.08594 19.3203 5.08594C19.5078 5.08594 19.6992 5.10156 19.8945 5.13281C20.0898 5.15625 20.25 5.19141 20.375 5.23828ZM25.5312 5.32031V18H22.1445V5.32031H25.5312ZM21.9336 2.01562C21.9336 1.52344 22.1055 1.11719 22.4492 0.796875C22.793 0.476563 23.2539 0.316406 23.832 0.316406C24.4023 0.316406 24.8594 0.476563 25.2031 0.796875C25.5547 1.11719 25.7305 1.52344 25.7305 2.01562C25.7305 2.50781 25.5547 2.91406 25.2031 3.23438C24.8594 3.55469 24.4023 3.71484 23.832 3.71484C23.2539 3.71484 22.793 3.55469 22.4492 3.23438C22.1055 2.91406 21.9336 2.50781 21.9336 2.01562ZM33.7695 18H30.0547L30.0781 15.2578H33.7695C34.6914 15.2578 35.4688 15.0508 36.1016 14.6367C36.7344 14.2148 37.2109 13.6016 37.5312 12.7969C37.8594 11.9922 38.0234 11.0195 38.0234 9.87891V9.04688C38.0234 8.17188 37.9297 7.40234 37.7422 6.73828C37.5625 6.07422 37.293 5.51562 36.9336 5.0625C36.5742 4.60938 36.1328 4.26953 35.6094 4.04297C35.0859 3.80859 34.4844 3.69141 33.8047 3.69141H29.9844V0.9375H33.8047C34.9453 0.9375 35.9883 1.13281 36.9336 1.52344C37.8867 1.90625 38.7109 2.45703 39.4062 3.17578C40.1016 3.89453 40.6367 4.75391 41.0117 5.75391C41.3945 6.74609 41.5859 7.85156 41.5859 9.07031V9.87891C41.5859 11.0898 41.3945 12.1953 41.0117 13.1953C40.6367 14.1953 40.1016 15.0547 39.4062 15.7734C38.7188 16.4844 37.8945 17.0352 36.9336 17.4258C35.9805 17.8086 34.9258 18 33.7695 18ZM32.0469 0.9375V18H28.5312V0.9375H32.0469ZM50.7734 15.1406V9.49219C50.7734 9.08594 50.707 8.73828 50.5742 8.44922C50.4414 8.15234 50.2344 7.92188 49.9531 7.75781C49.6797 7.59375 49.3242 7.51172 48.8867 7.51172C48.5117 7.51172 48.1875 7.57812 47.9141 7.71094C47.6406 7.83594 47.4297 8.01953 47.2812 8.26172C47.1328 8.49609 47.0586 8.77344 47.0586 9.09375H43.6836C43.6836 8.55469 43.8086 8.04297 44.0586 7.55859C44.3086 7.07422 44.6719 6.64844 45.1484 6.28125C45.625 5.90625 46.1914 5.61328 46.8477 5.40234C47.5117 5.19141 48.2539 5.08594 49.0742 5.08594C50.0586 5.08594 50.9336 5.25 51.6992 5.57812C52.4648 5.90625 53.0664 6.39844 53.5039 7.05469C53.9492 7.71094 54.1719 8.53125 54.1719 9.51562V14.9414C54.1719 15.6367 54.2148 16.207 54.3008 16.6523C54.3867 17.0898 54.5117 17.4727 54.6758 17.8008V18H51.2656C51.1016 17.6562 50.9766 17.2266 50.8906 16.7109C50.8125 16.1875 50.7734 15.6641 50.7734 15.1406ZM51.2188 10.2773L51.2422 12.1875H49.3555C48.9102 12.1875 48.5234 12.2383 48.1953 12.3398C47.8672 12.4414 47.5977 12.5859 47.3867 12.7734C47.1758 12.9531 47.0195 13.1641 46.918 13.4062C46.8242 13.6484 46.7773 13.9141 46.7773 14.2031C46.7773 14.4922 46.8438 14.7539 46.9766 14.9883C47.1094 15.2148 47.3008 15.3945 47.5508 15.5273C47.8008 15.6523 48.0938 15.7148 48.4297 15.7148C48.9375 15.7148 49.3789 15.6133 49.7539 15.4102C50.1289 15.207 50.418 14.957 50.6211 14.6602C50.832 14.3633 50.9414 14.082 50.9492 13.8164L51.8398 15.2461C51.7148 15.5664 51.543 15.8984 51.3242 16.2422C51.1133 16.5859 50.8438 16.9102 50.5156 17.2148C50.1875 17.5117 49.793 17.7578 49.332 17.9531C48.8711 18.1406 48.3242 18.2344 47.6914 18.2344C46.8867 18.2344 46.1562 18.0742 45.5 17.7539C44.8516 17.4258 44.3359 16.9766 43.9531 16.4062C43.5781 15.8281 43.3906 15.1719 43.3906 14.4375C43.3906 13.7734 43.5156 13.1836 43.7656 12.668C44.0156 12.1523 44.3828 11.7188 44.8672 11.3672C45.3594 11.0078 45.9727 10.7383 46.707 10.5586C47.4414 10.3711 48.293 10.2773 49.2617 10.2773H51.2188ZM60.3477 16.5703L63.7109 5.32031H67.332L62.2344 19.9102C62.125 20.2305 61.9766 20.5742 61.7891 20.9414C61.6094 21.3086 61.3633 21.6562 61.0508 21.9844C60.7461 22.3203 60.3594 22.5938 59.8906 22.8047C59.4297 23.0156 58.8633 23.1211 58.1914 23.1211C57.8711 23.1211 57.6094 23.1016 57.4062 23.0625C57.2031 23.0234 56.9609 22.9688 56.6797 22.8984V20.4258C56.7656 20.4258 56.8555 20.4258 56.9492 20.4258C57.043 20.4336 57.1328 20.4375 57.2188 20.4375C57.6641 20.4375 58.0273 20.3867 58.3086 20.2852C58.5898 20.1836 58.8164 20.0273 58.9883 19.8164C59.1602 19.6133 59.2969 19.3477 59.3984 19.0195L60.3477 16.5703ZM58.9414 5.32031L61.6953 14.5078L62.1758 18.082L59.8789 18.3281L55.3203 5.32031H58.9414Z" fill="#FDAC3D"/>
</svg>

