<svg width="31" height="31" viewBox="0 0 31 31" fill="none" xmlns="http://www.w3.org/2000/svg">
    <path d="M27.9947 23.9647C27.1643 23.2244 26.4373 22.3758 25.8333 21.4416C25.1739 20.1522 24.7786 18.744 24.6708 17.2997V13.0458C24.6765 10.7773 23.8536 8.5848 22.3568 6.88022C20.8599 5.17565 18.7921 4.07635 16.5419 3.78886V2.67803C16.5419 2.37314 16.4208 2.08074 16.2052 1.86515C15.9896 1.64956 15.6972 1.52844 15.3923 1.52844C15.0874 1.52844 14.795 1.64956 14.5794 1.86515C14.3638 2.08074 14.2427 2.37314 14.2427 2.67803V3.80608C12.0127 4.1143 9.96987 5.22025 8.49269 6.91909C7.0155 8.61793 6.20403 10.7946 6.20856 13.0458V17.2997C6.10072 18.744 5.70548 20.1522 5.04607 21.4416C4.45266 22.3737 3.73734 23.2222 2.91912 23.9647C2.82727 24.0454 2.75365 24.1447 2.70317 24.2561C2.65269 24.3674 2.6265 24.4883 2.62634 24.6105V25.7816C2.62634 26.01 2.71707 26.229 2.87856 26.3905C3.04005 26.552 3.25907 26.6427 3.48745 26.6427H27.4263C27.6547 26.6427 27.8738 26.552 28.0352 26.3905C28.1967 26.229 28.2875 26.01 28.2875 25.7816V24.6105C28.2873 24.4883 28.2611 24.3674 28.2106 24.2561C28.1601 24.1447 28.0865 24.0454 27.9947 23.9647ZM4.41745 24.9205C5.21864 24.1466 5.92405 23.2793 6.51857 22.3372C7.3492 20.7799 7.83385 19.0615 7.9394 17.2997V13.0458C7.90525 12.0366 8.07453 11.0309 8.43716 10.0885C8.79979 9.14605 9.34836 8.28626 10.0502 7.56027C10.752 6.83428 11.5928 6.25695 12.5224 5.86265C13.452 5.46835 14.4514 5.26515 15.4612 5.26515C16.471 5.26515 17.4704 5.46835 18.4 5.86265C19.3296 6.25695 20.1704 6.83428 20.8722 7.56027C21.574 8.28626 22.1226 9.14605 22.4852 10.0885C22.8479 11.0309 23.0172 12.0366 22.983 13.0458V17.2997C23.0886 19.0615 23.5732 20.7799 24.4038 22.3372C24.9984 23.2793 25.7038 24.1466 26.505 24.9205H4.41745Z" fill="white"/>
    <path d="M15.5 29.5189C16.0425 29.5064 16.563 29.3025 16.9696 28.9431C17.3762 28.5838 17.6426 28.0923 17.7217 27.5555H13.1923C13.2736 28.1069 13.5525 28.61 13.977 28.9711C14.4015 29.3323 14.9427 29.5269 15.5 29.5189V29.5189Z" fill="white"/>
</svg>
