<!-- <svg width="20" height="22" viewBox="0 0 20 22" fill="none" xmlns="http://www.w3.org/2000/svg">
    <path d="M10 11C12.7614 11 15 8.76142 15 6C15 3.23858 12.7614 1 10 1C7.23858 1 5 3.23858 5 6C5 8.76142 7.23858 11 10 11Z" stroke="black" stroke-width="2"/>
    <path d="M15 13H15.352C16.0831 13.0002 16.7889 13.2674 17.3369 13.7513C17.8849 14.2352 18.2373 14.9026 18.328 15.628L18.719 18.752C18.7542 19.0334 18.7291 19.3191 18.6454 19.5901C18.5617 19.8611 18.4214 20.1112 18.2336 20.3238C18.0459 20.5364 17.8151 20.7066 17.5566 20.8232C17.298 20.9398 17.0176 21.0001 16.734 21H3.266C2.98238 21.0001 2.70199 20.9398 2.44345 20.8232C2.1849 20.7066 1.9541 20.5364 1.76638 20.3238C1.57865 20.1112 1.43829 19.8611 1.3546 19.5901C1.27092 19.3191 1.24583 19.0334 1.281 18.752L1.671 15.628C1.7617 14.9022 2.11442 14.2346 2.66283 13.7506C3.21125 13.2667 3.91758 12.9997 4.649 13H5" stroke="black" stroke-width="2" stroke-linecap="round" stroke-linejoin="round"/>
</svg> -->

<!-- <svg xmlns="http://www.w3.org/2000/svg" class="h-5 w-5" viewBox="0 0 20 20" fill="currentColor">
  <path fill-rule="evenodd" d="M18 10a8 8 0 11-16 0 8 8 0 0116 0zm-6-3a2 2 0 11-4 0 2 2 0 014 0zm-2 4a5 5 0 00-4.546 2.916A5.986 5.986 0 0010 16a5.986 5.986 0 004.546-2.084A5 5 0 0010 11z" clip-rule="evenodd" />
</svg> -->
<svg width="18" height="19" viewBox="0 0 18 19" fill="none" xmlns="http://www.w3.org/2000/svg">
  <path d="M12.4747 10.4157C13.4158 10.8524 14.2726 11.4514 15.0059 12.1852C16.6114 13.7878 17.5196 15.903 17.5782 18.1589C17.579 18.1901 17.5735 18.2212 17.5621 18.2504C17.5506 18.2795 17.5335 18.306 17.5117 18.3284C17.4898 18.3508 17.4637 18.3686 17.4349 18.3807C17.4061 18.3929 17.3751 18.3991 17.3438 18.3991H15.7032C15.5772 18.3991 15.4718 18.2995 15.4688 18.1735C15.4102 16.4743 14.7218 14.8835 13.5147 13.6765C12.252 12.4138 10.5733 11.7194 8.78913 11.7194C7.91118 11.717 7.04147 11.8887 6.23032 12.2246C5.41917 12.5605 4.68271 13.054 4.06355 13.6765C2.85359 14.8835 2.16511 16.4743 2.10945 18.1735C2.10652 18.2995 2.00105 18.3991 1.87507 18.3991H0.234448C0.20317 18.3991 0.172207 18.3929 0.143383 18.3807C0.114558 18.3686 0.0884556 18.3508 0.0666135 18.3284C0.0447714 18.306 0.027632 18.2795 0.0162042 18.2504C0.00477633 18.2212 -0.000708695 18.1901 7.32534e-05 18.1589C0.058667 15.903 0.96687 13.7878 2.56648 12.1852C3.29955 11.4511 4.15644 10.852 5.09773 10.4157C3.77351 9.34052 2.9239 7.6999 2.9239 5.86006C2.9239 2.65498 5.49909 0.0504921 8.69538 0.000687411C11.9415 -0.0491172 14.6485 2.61397 14.6485 5.86006C14.6485 7.6999 13.8018 9.34052 12.4747 10.4157Z" fill="#F0F0F0"/>
</svg>
