<svg width="30" height="30" viewBox="0 0 30 30" fill="none" xmlns="http://www.w3.org/2000/svg">
    <path d="M24.1464 20.5048C23.4131 19.7709 22.5563 19.1719 21.6152 18.7353C22.9423 17.6601 23.789 16.0195 23.789 14.1796C23.789 10.9335 21.082 8.27046 17.8359 8.32026C14.6396 8.37007 12.0644 10.9746 12.0644 14.1796C12.0644 16.0195 12.914 17.6601 14.2382 18.7353C13.2969 19.1716 12.44 19.7706 11.707 20.5048C10.1074 22.1074 9.19917 24.2226 9.14058 26.4784C9.13979 26.5097 9.14528 26.5408 9.15671 26.5699C9.16813 26.5991 9.18527 26.6256 9.20712 26.648C9.22896 26.6704 9.25506 26.6882 9.28389 26.7003C9.31271 26.7124 9.34367 26.7187 9.37495 26.7187H11.0156C11.1416 26.7187 11.247 26.6191 11.25 26.4931C11.3056 24.7939 11.9941 23.2031 13.2041 21.996C13.8232 21.3736 14.5597 20.8801 15.3708 20.5442C16.182 20.2083 17.0517 20.0366 17.9296 20.039C19.7138 20.039 21.3925 20.7333 22.6552 21.996C23.8623 23.2031 24.5507 24.7939 24.6093 26.4931C24.6123 26.6191 24.7177 26.7187 24.8437 26.7187H26.4843C26.5156 26.7187 26.5466 26.7124 26.5754 26.7003C26.6042 26.6882 26.6303 26.6704 26.6522 26.648C26.674 26.6256 26.6911 26.5991 26.7026 26.5699C26.714 26.5408 26.7195 26.5097 26.7187 26.4784C26.6601 24.2226 25.7519 22.1074 24.1464 20.5048ZM17.9296 17.9296C16.9277 17.9296 15.9843 17.54 15.2783 16.831C14.9239 16.4795 14.644 16.0601 14.4553 15.5981C14.2665 15.136 14.1728 14.6406 14.1796 14.1415C14.1884 13.1806 14.5722 12.2519 15.2431 11.5634C15.9462 10.8427 16.8867 10.4414 17.8916 10.4296C18.8847 10.4208 19.8486 10.8076 20.5576 11.5019C21.2841 12.2138 21.6826 13.166 21.6826 14.1796C21.6826 15.1816 21.2929 16.122 20.5839 16.831C20.2361 17.1805 19.8224 17.4575 19.3668 17.6461C18.9112 17.8347 18.4227 17.9311 17.9296 17.9296ZM10.5908 14.9531C10.5644 14.6982 10.5498 14.4404 10.5498 14.1796C10.5498 13.7138 10.5937 13.2597 10.6757 12.8173C10.6962 12.7119 10.6406 12.6035 10.5439 12.5595C10.1455 12.3808 9.77925 12.1347 9.46284 11.8242C9.09001 11.4627 8.79663 11.0274 8.60141 10.5462C8.4062 10.065 8.31344 9.54833 8.32905 9.02925C8.35542 8.08882 8.73335 7.19526 9.39253 6.52144C10.1162 5.78023 11.0888 5.37593 12.123 5.38765C13.0576 5.39644 13.9599 5.75679 14.6425 6.39546C14.874 6.61226 15.0732 6.85249 15.2402 7.1103C15.2988 7.20112 15.413 7.23921 15.5126 7.20405C16.0283 7.02534 16.5732 6.89937 17.1328 6.84077C17.2968 6.82319 17.3906 6.64741 17.3173 6.50093C16.3652 4.61714 14.4199 3.31636 12.1699 3.2812C8.92085 3.2314 6.21382 5.89448 6.21382 9.13764C6.21382 10.9775 7.0605 12.6181 8.38765 13.6933C7.45601 14.124 6.59761 14.7187 5.85347 15.4628C4.248 17.0654 3.33979 19.1806 3.2812 21.4394C3.28042 21.4707 3.2859 21.5018 3.29733 21.5309C3.30876 21.56 3.3259 21.5865 3.34774 21.6089C3.36958 21.6313 3.39569 21.6491 3.42451 21.6612C3.45333 21.6734 3.4843 21.6796 3.51558 21.6796H5.15913C5.28511 21.6796 5.39058 21.58 5.39351 21.454C5.44917 19.7548 6.13765 18.164 7.34761 16.957C8.20894 16.0956 9.26362 15.498 10.415 15.208C10.5292 15.1787 10.6054 15.0703 10.5908 14.9531Z" fill="white"/>
</svg>
